<svg width="336" height="340" viewBox="0 0 336 340" fill="none" xmlns="http://www.w3.org/2000/svg">
<ellipse cx="168" cy="324" rx="144" ry="16" fill="#E6E6E6"/>
<path d="M335.5 309.5C335.5 309.838 335.316 310.242 334.796 310.715C334.278 311.186 333.478 311.673 332.381 312.168C330.191 313.155 326.931 314.12 322.691 315.045C314.22 316.893 301.942 318.56 286.748 319.962C256.366 322.765 214.382 324.5 168 324.5C121.618 324.5 79.6345 322.765 49.252 319.962C34.0579 318.56 21.7802 316.893 13.3088 315.045C9.06909 314.12 5.80877 313.155 3.61868 312.168C2.52186 311.673 1.72189 311.186 1.20358 310.715C0.683651 310.242 0.5 309.838 0.5 309.5C0.5 309.162 0.683651 308.758 1.20358 308.285C1.72189 307.814 2.52186 307.327 3.61868 306.832C5.80877 305.845 9.06909 304.88 13.3088 303.955C21.7802 302.107 34.0579 300.44 49.252 299.038C79.6345 296.235 121.618 294.5 168 294.5C214.382 294.5 256.366 296.235 286.748 299.038C301.942 300.44 314.22 302.107 322.691 303.955C326.931 304.88 330.191 305.845 332.381 306.832C333.478 307.327 334.278 307.814 334.796 308.285C335.316 308.758 335.5 309.162 335.5 309.5Z" stroke="black"/>
<path fill-rule="evenodd" clip-rule="evenodd" d="M125.633 282.422C125.943 284.309 126.253 286.197 126.565 288.085C127.344 292.794 125.41 297.01 120.851 298.543C116.935 299.86 111.514 297 110.787 292.605C110.451 290.571 110.133 288.53 109.814 286.488C109.131 282.11 108.448 277.726 107.584 273.391C107.439 272.664 107.265 271.948 107.082 271.231C107.012 270.959 106.961 270.76 106.923 270.613C106.662 269.977 106.236 269.542 105.222 268.679C105.573 268.983 105.07 268.594 104.683 268.294C104.549 268.191 104.43 268.099 104.363 268.049C103.816 267.637 103.271 267.223 102.731 266.801C101.426 265.78 100.134 264.739 98.8714 263.661C84.3285 251.243 73.8677 232.768 70.6956 213.467C68.8632 202.462 69.0308 191.216 71.1904 180.27C72.184 175.274 73.6441 170.382 75.5517 165.658C76.7169 162.757 77.9436 159.898 79.3807 157.129C79.5675 156.769 79.762 156.413 79.9567 156.056C80.3088 155.41 80.6614 154.763 80.9694 154.095C81.0003 153.993 81.0348 153.878 81.076 153.739C81.0761 153.713 81.0762 153.686 81.0763 153.659C81.0765 153.6 81.0767 153.539 81.0767 153.471C81.0709 151.272 81.9207 149.157 83.4468 147.571C84.973 145.985 87.0565 145.052 89.258 144.969C93.6738 144.764 97.4431 149.024 97.4393 153.471C97.4354 158.198 95.3582 162.252 93.2799 166.309C92.4698 167.89 91.6595 169.472 90.9718 171.094C90.9636 171.147 90.3456 172.723 90.3591 172.686C90.153 173.248 89.9531 173.812 89.7594 174.378C89.3247 175.653 88.922 176.938 88.5512 178.234C87.7681 180.974 87.1299 183.754 86.6392 186.561C86.5096 187.3 86.3938 188.042 86.2837 188.784C86.2753 188.841 86.2679 188.89 86.2612 188.934C86.2579 188.957 86.2547 188.977 86.2517 188.997L86.2292 189.205C86.0804 190.549 85.9596 191.895 85.8747 193.245C85.7256 195.647 85.6825 198.05 85.7454 200.453C85.7822 201.805 85.853 203.155 85.9576 204.502C86.004 205.101 86.0572 205.699 86.1171 206.297C86.1221 206.346 86.143 206.531 86.1677 206.748C86.1926 206.967 86.2214 207.22 86.2414 207.403C86.2704 207.596 86.31 207.868 86.3431 208.095C86.3719 208.293 86.3958 208.456 86.403 208.502C86.4971 209.095 86.5982 209.687 86.7063 210.277C86.916 211.426 87.1518 212.568 87.4137 213.705C87.9434 216.007 88.5764 218.276 89.3127 220.512C89.6592 221.564 90.0375 222.604 90.4165 223.644C90.4459 223.725 90.4728 223.798 90.4973 223.866C90.5409 223.985 90.5772 224.085 90.6077 224.169C90.7854 224.6 90.9675 225.028 91.154 225.454C93.0348 229.747 95.2912 233.866 97.8969 237.763C98.2795 238.333 98.6692 238.898 99.0659 239.458C99.0984 239.504 99.2193 239.669 99.3536 239.853C99.4639 240.003 99.5832 240.166 99.6701 240.286C99.7814 240.428 99.9236 240.611 100.04 240.761C100.141 240.89 100.223 240.996 100.25 241.03C100.59 241.46 100.934 241.886 101.283 242.308C102.677 243.998 104.139 245.622 105.667 247.18C107.388 248.934 109.195 250.584 111.064 252.163C111.141 252.228 111.199 252.277 111.246 252.318L111.311 252.368C111.745 252.705 112.183 253.036 112.622 253.366C113.87 254.305 115.113 255.248 116.312 256.257C118.412 258.025 119.963 260.12 121.119 262.439C121.927 262.164 122.774 262.011 123.629 262.004L173.582 261.62C173.991 261.617 174.401 261.612 174.811 261.608C178.359 261.569 181.932 261.531 185.415 262.314C189.872 263.317 193.418 265.995 196.036 269.656C200.658 276.117 202.013 284.771 202.326 292.475C202.511 297.047 198.429 300.45 194.144 300.642C189.602 300.845 186.136 296.738 185.963 292.475C185.828 289.145 185.623 288.369 184.704 284.894L184.666 284.752C184.268 283.12 183.758 281.519 183.139 279.957C183.125 279.978 182.843 279.445 182.667 279.111C182.629 279.04 182.596 278.977 182.571 278.931C182.472 278.781 182.412 278.683 182.384 278.628C182.18 278.542 181.775 278.289 181.917 278.285C181.732 278.237 181.546 278.196 181.36 278.154C181.136 278.104 180.913 278.053 180.693 277.993C180.662 277.985 180.641 277.978 180.618 277.971C180.522 277.975 180.387 277.976 180.199 277.974C179.846 277.97 179.494 277.96 179.142 277.949C178.721 277.936 178.301 277.924 177.879 277.922C175.554 277.915 173.229 277.94 170.904 277.966C169.779 277.978 168.653 277.991 167.527 278L124.96 278.327C125.185 279.692 125.409 281.057 125.633 282.422Z" fill="#E6E6E6"/>
<path d="M196.864 304.569C193.428 304.577 190.129 303.226 187.69 300.809C185.251 298.393 183.872 295.11 183.856 291.681V282.365C174.085 283.457 140.626 283.204 131.035 281.665V291.308C131.009 294.735 129.628 298.013 127.191 300.427C124.754 302.841 121.46 304.196 118.027 304.196C114.594 304.196 111.3 302.841 108.863 300.427C106.426 298.013 105.044 294.735 105.018 291.308V272.376C92.0284 265.172 81.1994 254.639 73.649 241.863C66.0985 229.088 62.1002 214.532 62.0666 199.699C62.0666 174.265 73.614 150.538 93.7481 134.604C106.839 124.208 122.744 117.956 139.421 116.651C141.685 116.473 143.963 116.384 146.191 116.384C154.041 116.384 189.459 117.594 198.346 120.146L218.609 100.076C218.906 99.7768 219.287 99.573 219.701 99.4906C220.116 99.4082 220.545 99.4508 220.935 99.613C221.328 99.7691 221.665 100.04 221.9 100.39C222.136 100.741 222.26 101.154 222.257 101.576V104.768L226.202 100.867C226.499 100.568 226.88 100.363 227.294 100.281C227.708 100.198 228.137 100.241 228.527 100.403C228.92 100.559 229.257 100.83 229.493 101.181C229.729 101.531 229.854 101.945 229.85 102.367V138.027C240.018 147.177 247.767 158.69 252.412 171.544C257.056 184.399 258.453 198.198 256.477 211.72C254.501 225.242 249.214 238.069 241.085 249.063C232.955 260.058 222.234 268.881 209.872 274.75V291.681C209.855 295.11 208.476 298.393 206.038 300.809C203.599 303.226 200.3 304.577 196.864 304.569V304.569ZM184.878 281.207V291.681C184.904 294.837 186.178 297.855 188.423 300.078C190.668 302.3 193.702 303.547 196.864 303.547C200.026 303.547 203.06 302.3 205.305 300.078C207.549 297.855 208.824 294.837 208.849 291.681V274.106L209.141 273.967C223.013 267.397 234.788 257.117 243.161 244.271C253.829 227.877 258.266 208.212 255.668 188.836C253.07 169.459 243.609 151.651 228.997 138.635L228.827 138.483V102.367C228.831 102.148 228.767 101.933 228.644 101.751C228.522 101.568 228.346 101.428 228.141 101.349C227.937 101.262 227.712 101.238 227.495 101.282C227.278 101.325 227.078 101.432 226.923 101.59L221.234 107.215V101.576C221.238 101.357 221.174 101.142 221.051 100.96C220.928 100.777 220.753 100.637 220.548 100.558C220.344 100.471 220.118 100.448 219.9 100.491C219.683 100.535 219.483 100.643 219.328 100.801L198.631 121.301L198.337 121.209C190.076 118.628 154.101 117.404 146.191 117.404C143.989 117.404 141.738 117.493 139.502 117.668C123.027 118.958 107.315 125.134 94.3835 135.403C74.4955 151.143 63.0892 174.578 63.0892 199.699C63.1232 214.401 67.1002 228.825 74.607 241.474C82.1138 254.124 92.8765 264.536 105.777 271.629L106.041 271.775V291.308C106.067 294.464 107.342 297.481 109.587 299.704C111.832 301.926 114.865 303.173 118.027 303.173C121.188 303.173 124.222 301.926 126.467 299.704C128.712 297.481 129.986 294.464 130.012 291.308V280.443L130.618 280.557C139.237 282.176 175.529 282.431 184.3 281.283L184.878 281.207Z" fill="black"/>
<path d="M127.543 60.7994L70.9178 77.786C69.1168 78.3284 67.6051 79.5623 66.7149 81.2167C65.8247 82.871 65.6288 84.8104 66.1702 86.6088C66.7115 88.4072 67.946 89.9176 69.6023 90.8081C71.2585 91.6985 73.2012 91.8963 75.0035 91.3579L124.556 76.4895L125.595 76.1781C125.805 70.8384 127.256 65.6207 129.833 60.9372C129.51 60.7919 129.164 60.7021 128.811 60.6717C128.384 60.6305 127.953 60.6738 127.543 60.7994Z" fill="#ED764A"/>
<path d="M74.0242 94.9794C73.2725 94.9776 72.5404 94.74 71.9314 94.3003C71.3223 93.8605 70.8671 93.2408 70.6301 92.5288L67.0892 81.8632C66.9413 81.4178 66.8828 80.9476 66.9169 80.4797C66.951 80.0117 67.0772 79.555 67.2882 79.1357C67.4992 78.7163 67.7908 78.3426 68.1465 78.0359C68.5022 77.7291 68.9149 77.4952 69.3612 77.3477L115.448 62.1015C115.894 61.9539 116.365 61.8954 116.834 61.9295C117.303 61.9635 117.76 62.0894 118.18 62.2999C118.6 62.5104 118.975 62.8015 119.282 63.1565C119.589 63.5114 119.824 63.9234 119.972 64.3687L123.513 75.0344C123.807 75.9116 123.748 76.8689 123.348 77.7034C122.948 78.5379 122.238 79.1842 121.368 79.5052C121.326 79.5212 121.283 79.5362 121.239 79.5504L75.1537 94.796C74.7894 94.9172 74.4081 94.9791 74.0242 94.9794Z" fill="black"/>
<path d="M160.334 41.8579C151.033 41.8615 142.097 45.4778 135.42 51.9416C128.742 58.4053 124.846 67.209 124.556 76.4895C124.546 76.8519 124.541 77.2194 124.541 77.5869C124.541 84.6535 126.64 91.5613 130.573 97.4369C134.506 103.313 140.097 107.892 146.637 110.596C153.177 113.301 160.374 114.008 167.317 112.629C174.26 111.251 180.638 107.848 185.644 102.851C190.65 97.8544 194.059 91.4881 195.44 84.5573C196.821 77.6266 196.112 70.4427 193.403 63.914C190.694 57.3854 186.106 51.8053 180.22 47.8793C174.334 43.9534 167.414 41.8579 160.334 41.8579V41.8579ZM160.334 112.295C151.116 112.286 142.277 108.626 135.759 102.119C129.24 95.6118 125.573 86.7892 125.564 77.5869C125.564 77.1123 125.574 76.6427 125.595 76.1782C125.871 69.3794 128.144 62.8118 132.131 57.292C136.117 51.7723 141.64 47.544 148.015 45.1328C154.389 42.7217 161.333 42.234 167.983 43.7306C174.632 45.2272 180.695 48.6419 185.416 53.5502C190.137 58.4585 193.309 64.6438 194.536 71.3369C195.764 78.0301 194.994 84.9359 192.321 91.1955C189.649 97.4552 185.192 102.793 179.504 106.544C173.817 110.295 167.151 112.295 160.334 112.295V112.295Z" fill="black"/>
<path d="M190.503 77.5869C190.503 85.5738 187.324 93.2335 181.667 98.8811C176.009 104.529 168.336 107.701 160.334 107.701C152.333 107.701 144.66 104.529 139.002 98.8811C133.344 93.2335 130.166 85.5738 130.166 77.5869C130.166 76.6325 130.212 75.6933 130.299 74.7643C131.026 67.0562 134.699 59.9237 140.555 54.8478C146.412 49.7718 154.002 47.1425 161.75 47.5058C169.497 47.869 176.807 51.1969 182.161 56.7984C187.516 62.3999 190.503 69.8447 190.503 77.5869V77.5869Z" fill="#E6E6E6"/>
<path d="M169.318 79.5877C168.587 78.628 167.625 77.8679 166.522 77.3777C165.16 76.805 163.755 76.3441 162.318 75.9995V67.8023C164.526 68.1345 166.597 69.0769 168.296 70.5228L169.963 66.9754C169.004 66.1228 167.903 65.444 166.711 64.9695C165.388 64.4351 164.001 64.0797 162.584 63.9129V59.7581H158.724V63.9537C157.233 64.1209 155.795 64.6028 154.505 65.3676C153.34 66.0559 152.359 67.0156 151.647 68.1647C150.967 69.286 150.614 70.5748 150.629 71.8856C150.563 73.306 150.975 74.7077 151.8 75.8668C152.56 76.8704 153.563 77.6644 154.715 78.1739C156.098 78.7634 157.528 79.2364 158.99 79.5877V87.443C156.384 87.2469 153.902 86.2582 151.877 84.6102L150.21 88.1627C151.342 89.0971 152.63 89.8261 154.014 90.3167C155.531 90.8586 157.116 91.1884 158.724 91.2967V95.4157H162.584V91.2201C164.729 90.9862 166.739 90.0658 168.316 88.5966C169.011 87.9318 169.559 87.1304 169.927 86.243C170.295 85.3556 170.474 84.4016 170.454 83.4414C170.518 82.0662 170.118 80.7093 169.318 79.5877V79.5877ZM158.99 75.1318C158.049 74.8471 157.175 74.3787 156.417 73.7537C156.117 73.4872 155.88 73.1577 155.723 72.7888C155.566 72.4199 155.492 72.0208 155.507 71.6202C155.48 70.7111 155.814 69.8281 156.438 69.1651C157.13 68.4695 158.022 68.0072 158.99 67.8431V75.1318ZM164.742 85.9935C164.09 86.6613 163.24 87.103 162.318 87.2542V80.4963C163.2 80.7323 164.024 81.1438 164.742 81.706C165.014 81.938 165.231 82.2283 165.375 82.5553C165.519 82.8822 165.588 83.2374 165.576 83.5945C165.611 84.4705 165.313 85.3275 164.742 85.9935V85.9935Z" fill="black"/>
<path d="M253.21 14.0915C247.213 10.9516 240.232 10.264 233.745 12.1742C227.257 14.0845 221.772 18.4428 218.45 24.3265C218.321 24.5566 218.194 24.7918 218.07 25.0287C215.683 29.5833 214.702 34.7448 215.252 39.8605C215.802 44.9761 217.858 49.8162 221.16 53.7686C224.462 57.721 228.862 60.6083 233.803 62.0653C238.743 63.5222 244.004 63.4834 248.918 61.9538C253.832 60.4243 258.18 57.4725 261.412 53.472C264.643 49.4714 266.613 44.6017 267.073 39.4786C267.532 34.3554 266.46 29.2091 263.993 24.6902C261.525 20.1713 257.772 16.483 253.21 14.0915V14.0915ZM229.415 59.4908C223.476 56.3704 219.016 51.0258 217.013 44.6297C215.009 38.2336 215.626 31.3085 218.729 25.3741C218.889 25.0682 219.055 24.769 219.225 24.4765C221.7 20.188 225.383 16.7227 229.817 14.5117C234.251 12.3006 239.24 11.4413 244.163 12.0406C249.086 12.6398 253.726 14.6713 257.507 17.8822C261.287 21.0932 264.041 25.3421 265.426 30.1005C266.811 34.8589 266.765 39.917 265.296 44.6457C263.826 49.3745 260.996 53.5653 257.159 56.697C253.322 59.8287 248.646 61.7632 243.713 62.26C238.781 62.7567 233.808 61.7937 229.415 59.4908V59.4908Z" fill="black"/>
<path d="M260.584 47.3116C257.886 52.4594 253.25 56.3226 247.696 58.0514C242.141 59.7802 236.124 59.233 230.967 56.53C225.81 53.8271 221.936 49.1899 220.197 43.6386C218.458 38.0873 218.997 32.0766 221.695 26.9288C222.017 26.3136 222.364 25.7238 222.734 25.1544C225.807 20.4318 230.584 17.0755 236.073 15.7823C241.563 14.4892 247.343 15.3585 252.214 18.2099C257.085 21.0613 260.672 25.6756 262.231 31.0947C263.789 36.5138 263.2 42.3214 260.584 47.3116V47.3116Z" fill="#E6E6E6"/>
<path d="M246.254 41.4447C246.107 40.5791 245.744 39.7642 245.198 39.0754C244.514 38.2464 243.764 37.4745 242.955 36.7672L245.724 31.4838C247.035 32.4438 248.051 33.7506 248.658 35.2565L250.93 33.5333C250.6 32.6598 250.12 31.8505 249.512 31.1417C248.84 30.3507 248.066 29.6528 247.209 29.0668L248.613 26.3889L246.125 25.0847L244.707 27.789C243.69 27.3931 242.6 27.218 241.511 27.2752C240.527 27.3253 239.571 27.6125 238.723 28.1123C237.906 28.6053 237.244 29.317 236.811 30.1669C236.288 31.06 236.08 32.1027 236.22 33.1285C236.371 34.0319 236.749 34.8825 237.319 35.6001C238.012 36.4472 238.774 37.2351 239.597 37.9555L236.944 43.0185C235.331 42.0119 234.065 40.5361 233.316 38.7899L231.042 40.5165C231.456 41.5012 232.039 42.4061 232.766 43.1899C233.561 44.0517 234.471 44.7996 235.47 45.4125L234.079 48.0674L236.567 49.3715L237.984 46.6673C239.445 47.2409 241.052 47.327 242.565 46.9126C243.237 46.7188 243.862 46.3875 244.399 45.9398C244.935 45.4922 245.373 44.9379 245.684 44.312C246.19 43.4473 246.391 42.4377 246.254 41.4447V41.4447ZM241.102 35.0835C240.592 34.5823 240.187 33.985 239.91 33.3263C239.807 33.0532 239.765 32.7606 239.788 32.4697C239.812 32.1788 239.899 31.8967 240.044 31.6437C240.333 31.0484 240.847 30.5923 241.473 30.3757C242.154 30.161 242.885 30.1645 243.565 30.3856L241.102 35.0835ZM241.141 44.0275C240.495 44.2375 239.798 44.2353 239.153 44.0212L241.436 39.6655C241.924 40.1154 242.316 40.6591 242.589 41.264C242.686 41.5055 242.728 41.7657 242.71 42.0252C242.693 42.2846 242.617 42.5368 242.488 42.7628C242.215 43.3394 241.734 43.7912 241.141 44.0275V44.0275Z" fill="black"/>
<path d="M292.866 66.3878C289.003 67.5296 285.735 70.1269 283.754 73.6301C281.773 77.1333 281.234 81.2673 282.252 85.1573C282.292 85.3091 282.335 85.4623 282.38 85.615C283.246 88.5499 284.965 91.1616 287.319 93.1198C289.672 95.0779 292.556 96.2947 295.603 96.616C298.651 96.9374 301.727 96.3491 304.442 94.9253C307.157 93.5016 309.388 91.3065 310.855 88.6175C312.321 85.9285 312.957 82.8665 312.681 79.8187C312.405 76.7708 311.23 73.874 309.304 71.4946C307.379 69.1151 304.789 67.36 301.863 66.451C298.937 65.542 295.806 65.52 292.866 66.3878V66.3878ZM301.501 95.6425C297.671 96.7686 293.551 96.3321 290.046 94.4286C286.541 92.5252 283.937 89.3104 282.805 85.4896C282.746 85.2924 282.693 85.0962 282.645 84.9007C281.926 82.043 282.065 79.0367 283.044 76.2555C284.023 73.4743 285.799 71.0411 288.151 69.2582C290.503 67.4754 293.327 66.4216 296.272 66.228C299.217 66.0344 302.154 66.7095 304.716 68.1693C307.279 69.6291 309.354 71.8092 310.685 74.4386C312.015 77.068 312.542 80.0306 312.199 82.958C311.857 85.8855 310.66 88.6486 308.758 90.9038C306.855 93.1591 304.332 94.8069 301.501 95.6425V95.6425Z" fill="black"/>
<path d="M309.776 77.5289C310.755 80.846 310.374 84.417 308.716 87.4562C307.059 90.4953 304.261 92.7537 300.938 93.7346C297.614 94.7154 294.038 94.3384 290.996 92.6863C287.954 91.0343 285.695 88.2426 284.716 84.9255C284.599 84.529 284.503 84.1333 284.425 83.7369C283.782 80.4463 284.433 77.0337 286.244 74.2076C288.054 71.3814 290.884 69.3589 294.146 68.56C297.408 67.7611 300.852 68.2472 303.763 69.9173C306.673 71.5875 308.827 74.3133 309.776 77.5289V77.5289Z" fill="#E6E6E6"/>
<path d="M301.223 80.9568C300.801 80.6479 300.308 80.4501 299.79 80.3818C299.154 80.3108 298.514 80.2917 297.875 80.3247L296.87 76.9201C297.828 76.7874 298.804 76.925 299.687 77.3172L299.944 75.6395C299.441 75.403 298.901 75.2559 298.347 75.2051C297.733 75.1452 297.113 75.1678 296.504 75.2721L295.995 73.5465L294.391 74.0198L294.906 75.7623C294.307 76.0145 293.769 76.391 293.327 76.8667C292.927 77.2954 292.638 77.8142 292.483 78.3788C292.338 78.9279 292.349 79.5064 292.516 80.0489C292.663 80.647 293.006 81.1786 293.491 81.5589C293.929 81.8826 294.443 82.0894 294.984 82.1598C295.63 82.2352 296.282 82.2563 296.933 82.223L297.896 85.4855C296.79 85.7234 295.637 85.6171 294.594 85.1809L294.337 86.8607C294.922 87.11 295.546 87.2549 296.182 87.2889C296.878 87.328 297.577 87.2707 298.258 87.1187L298.763 88.8294L300.366 88.3562L299.852 86.6136C300.714 86.2536 301.436 85.6248 301.911 84.8213C302.118 84.4601 302.247 84.06 302.291 83.6463C302.335 83.2326 302.293 82.8144 302.166 82.4182C302.024 81.8392 301.692 81.3246 301.223 80.9568V80.9568ZM296.386 80.3723C295.961 80.3694 295.54 80.282 295.149 80.1153C294.992 80.0414 294.853 79.9336 294.742 79.7997C294.632 79.6657 294.552 79.509 294.51 79.3407C294.387 78.9665 294.417 78.5588 294.595 78.207C294.797 77.8333 295.111 77.5319 295.493 77.3451L296.386 80.3723ZM300.107 84.1783C299.918 84.5356 299.619 84.8232 299.255 84.999L298.427 82.1923C298.822 82.1823 299.214 82.2521 299.582 82.3976C299.723 82.4606 299.848 82.5546 299.948 82.6728C300.048 82.7909 300.12 82.93 300.159 83.0798C300.281 83.4393 300.263 83.8317 300.107 84.1783V84.1783Z" fill="black"/>
<path d="M75.6676 138.206C74.8772 138.205 74.1092 137.943 73.4829 137.462C72.8565 136.98 72.4067 136.306 72.2033 135.544L70.2755 128.26C70.0342 127.345 70.1665 126.371 70.6434 125.553C71.1204 124.734 71.9029 124.138 72.8195 123.895L133.638 107.853C134.555 107.614 135.531 107.748 136.35 108.225C137.169 108.701 137.766 109.483 138.01 110.398L139.643 116.569L139.337 116.592C123.739 117.803 108.815 123.448 96.3303 132.86L96.2416 132.903L76.5757 138.088C76.2793 138.166 75.9741 138.206 75.6676 138.206V138.206Z" fill="black"/>
<path d="M65.595 174.183C58.4607 173.131 51.6375 170.556 45.5906 166.633C42.5948 164.691 39.8215 162.427 37.3203 159.881C34.8517 157.368 32.4901 154.511 31.2673 151.164C30.0909 148.067 30.1515 144.637 31.4367 141.584C32.7043 138.549 35.1258 136.139 38.1703 134.884C41.2329 133.665 44.9332 133.534 47.9139 134.87C49.3343 135.491 50.5633 136.479 51.475 137.731C51.8988 138.308 52.2125 138.958 52.4006 139.649C52.5752 140.275 52.5911 140.934 52.4469 141.568C52.2721 142.2 51.9638 142.788 51.5428 143.292C51.1218 143.796 50.5978 144.204 50.0058 144.489C48.703 145.156 47.2914 145.586 45.8374 145.758C44.3749 145.957 42.2741 146.138 41.0984 144.966C40.8563 144.734 40.666 144.454 40.5397 144.144C40.4513 143.907 40.4211 143.651 40.4515 143.4C40.4344 143.511 40.5225 143.159 40.5175 143.173C40.4989 143.225 40.4183 143.352 40.5328 143.157C40.5686 143.093 40.6084 143.031 40.652 142.972C40.6131 143.022 40.5278 143.105 40.6802 142.962C40.8061 142.824 40.968 142.724 41.1477 142.674C41.2185 142.653 41.2903 142.637 41.3612 142.617C41.5416 142.568 41.1814 142.62 41.366 142.614C41.4372 142.612 41.5093 142.614 41.5802 142.611C41.7612 142.602 41.4017 142.561 41.5751 142.605C41.6425 142.622 41.7092 142.638 41.7756 142.659C41.9198 142.704 41.6734 142.553 41.7712 142.666C41.8857 142.799 41.6509 142.538 41.7811 142.666C41.8459 142.729 41.9069 142.797 41.964 142.867C42.1898 143.09 42.4943 143.214 42.8115 143.214C43.1288 143.214 43.4333 143.09 43.659 142.867C43.8771 142.639 43.9988 142.336 43.9988 142.021C43.9988 141.706 43.8771 141.403 43.659 141.175C42.4772 139.713 40.1426 140.074 38.947 141.31C37.4222 142.886 38.026 145.385 39.5092 146.76C41.1883 148.317 43.5663 148.426 45.7262 148.164C47.5515 147.99 49.3303 147.488 50.9771 146.683C52.6134 145.881 53.8932 144.5 54.5687 142.81C54.8736 141.908 54.9832 140.951 54.8901 140.004C54.7969 139.056 54.5033 138.139 54.0285 137.313C52.1216 133.735 48.173 131.9 44.2701 131.582C42.2607 131.425 40.24 131.667 38.325 132.295C36.4099 132.923 34.6386 133.923 33.1135 135.238C30.1738 137.88 28.3636 141.548 28.0573 145.485C27.7166 149.566 29.3029 153.53 31.6158 156.823C34.037 160.17 36.9264 163.153 40.1956 165.681C46.587 170.774 54.084 174.304 62.0867 175.986C63.0386 176.183 63.9956 176.351 64.9577 176.491C65.2639 176.565 65.5868 176.519 65.8607 176.364C66.1346 176.209 66.3389 175.955 66.4321 175.655C66.5143 175.349 66.4725 175.023 66.3159 174.748C66.1592 174.472 65.9003 174.269 65.595 174.183L65.595 174.183Z" fill="black"/>
<path d="M179.819 122.184C169.366 122.037 158.946 122.302 148.56 122.978C145.009 123.21 141.938 124.462 141.938 126.568C141.938 128.328 144.985 130.39 148.56 130.157C158.941 129.48 169.361 129.215 179.819 129.363C188.345 129.483 188.34 122.304 179.819 122.184Z" fill="#CCCCCC"/>
<path d="M164.37 129.007C163.24 129.007 136.704 128.965 136.704 125.306C136.704 121.647 163.24 121.605 164.37 121.605C165.499 121.605 192.036 121.647 192.036 125.306C192.036 128.965 165.499 129.007 164.37 129.007ZM137.741 125.306C138.467 126.415 148.222 127.986 164.37 127.986C180.517 127.986 190.272 126.415 190.998 125.306C190.272 124.197 180.517 122.626 164.37 122.626C148.222 122.626 138.467 124.197 137.741 125.306V125.306Z" fill="black"/>
<path d="M248.562 225.195C254.437 225.032 261.748 224.829 267.38 220.722C269.057 219.449 270.435 217.825 271.417 215.964C272.399 214.103 272.962 212.051 273.066 209.95C273.181 206.707 272.007 203.875 269.76 201.98C266.819 199.499 262.523 198.917 257.894 200.275L262.69 165.287L259.169 164.806L253.531 205.938L256.471 204.592C259.88 203.031 264.559 202.237 267.466 204.69C268.18 205.331 268.737 206.128 269.092 207.019C269.447 207.909 269.592 208.87 269.515 209.825C269.428 211.389 269.006 212.915 268.276 214.301C267.546 215.687 266.525 216.9 265.283 217.857C260.9 221.052 255.073 221.465 248.463 221.649L248.562 225.195Z" fill="black"/>
<path d="M238.827 168.305H219.687V171.852H238.827V168.305Z" fill="black"/>
<path d="M84.3288 154.522C83.4768 154.519 82.6537 154.214 82.0068 153.66C81.3599 153.107 80.9316 152.341 80.7986 151.501L79.6303 144.059C79.4844 143.123 79.7164 142.167 80.2755 141.402C80.8345 140.636 81.675 140.123 82.6124 139.976L144.755 130.256C145.693 130.111 146.65 130.342 147.417 130.9C148.184 131.458 148.698 132.297 148.845 133.233L150.014 140.676C150.16 141.612 149.928 142.567 149.369 143.333C148.81 144.098 147.969 144.611 147.032 144.759L84.8888 154.478C84.7035 154.507 84.5163 154.522 84.3288 154.522Z" fill="black"/>
<path d="M58.611 67.3006C73.0134 67.3006 84.6889 55.646 84.6889 41.2694C84.6889 26.8928 73.0134 15.2383 58.611 15.2383C44.2085 15.2383 32.5331 26.8928 32.5331 41.2694C32.5331 55.646 44.2085 67.3006 58.611 67.3006Z" fill="#ED764A"/>
<path d="M73.3758 48.0048C74.2093 47.7138 74.9706 47.2481 75.6087 46.6389C76.0309 46.2046 76.3529 45.6833 76.552 45.1117C76.7512 44.5401 76.8227 43.932 76.7617 43.3299C76.7262 42.9007 76.5918 42.4856 76.369 42.1169C76.1461 41.7482 75.8409 41.4359 75.4772 41.2044C74.5334 40.6251 73.2863 40.647 72.0272 41.2296L71.8819 31.0683L70.8594 31.0829L71.0302 43.0285L71.8086 42.5189C72.7113 41.9289 74.0082 41.5011 74.9413 42.074C75.1721 42.2257 75.3648 42.4285 75.5042 42.6666C75.6437 42.9047 75.7263 43.1717 75.7456 43.4468C75.7886 43.8954 75.7344 44.3479 75.5865 44.7736C75.4385 45.1994 75.2005 45.5883 74.8885 45.914C73.78 47.0119 72.1392 47.3798 70.2664 47.7163L70.4477 48.7209C71.4432 48.57 72.4232 48.3303 73.3758 48.0048V48.0048Z" fill="black"/>
<path d="M82.4122 30.3551L76.9664 31.1784L77.1195 32.1876L82.5653 31.3643L82.4122 30.3551Z" fill="black"/>
<path d="M65.2228 32.9531L59.777 33.7764L59.9301 34.7855L65.3759 33.9623L65.2228 32.9531Z" fill="black"/>
<path d="M75.8444 154.067C74.9066 154.065 73.9915 153.778 73.2211 153.244C72.4507 152.71 71.8614 151.955 71.5316 151.078L53.5516 103.013C51.354 97.1181 51.5887 90.5937 54.2041 84.8713C56.8196 79.1489 61.6023 74.6958 67.5029 72.489L82.1227 67.0397C82.688 66.8276 83.2898 66.7291 83.8934 66.75C84.4969 66.771 85.0904 66.9108 85.6397 67.1616C86.1875 67.4059 86.6811 67.7568 87.0916 68.1938C87.5021 68.6307 87.8212 69.145 88.0303 69.7064L121.337 132.479C121.553 133.045 121.655 133.648 121.637 134.254C121.619 134.859 121.481 135.455 121.231 136.008C120.981 136.56 120.624 137.057 120.181 137.471C119.738 137.885 119.217 138.207 118.649 138.42L77.4527 153.775C76.9384 153.967 76.3937 154.066 75.8444 154.067Z" fill="black"/>
<path d="M77.687 68.6929L110.734 112.806L88.3725 69.1559C88.1879 68.6466 87.9045 68.1786 87.5386 67.7786C87.1726 67.3787 86.7314 67.0546 86.24 66.8249C85.7486 66.5952 85.2166 66.4644 84.6746 66.4399C84.1325 66.4155 83.5909 66.4979 83.0808 66.6824L77.687 68.6929Z" fill="#E6E6E6"/>
<path d="M130.013 102.194L71.0074 98.4001C70.0773 98.3403 69.1682 98.0982 68.3318 97.6877C67.4955 97.2771 66.7484 96.7062 66.1331 96.0074C65.5178 95.3087 65.0464 94.4958 64.7458 93.6152C64.4452 92.7346 64.3213 91.8035 64.3813 90.8751C64.4412 89.9467 64.6837 89.0392 65.0949 88.2043C65.5062 87.3695 66.0782 86.6237 66.7782 86.0095C67.4782 85.3953 68.2925 84.9247 69.1747 84.6247C70.0569 84.3247 70.9897 84.201 71.9197 84.2608L130.925 88.0545C131.361 88.0825 131.786 88.1958 132.178 88.3881C132.57 88.5803 132.92 88.8477 133.208 89.1749C133.496 89.5021 133.717 89.8828 133.857 90.2952C133.998 90.7076 134.056 91.1437 134.028 91.5785L133.543 99.0965C133.486 99.9745 133.083 100.794 132.421 101.375C131.758 101.956 130.892 102.251 130.013 102.194Z" fill="#ED764A"/>
<path d="M114.246 104.626C114.168 104.626 114.09 104.624 114.011 104.619H114.011L65.5594 101.503C65.0903 101.473 64.6317 101.351 64.2099 101.144C63.7881 100.937 63.4113 100.649 63.1009 100.297C62.7906 99.9445 62.5529 99.5346 62.4013 99.0904C62.2497 98.6463 62.1872 98.1767 62.2175 97.7085L63.046 84.8674C63.0762 84.3991 63.1986 83.9414 63.406 83.5204C63.6134 83.0993 63.9019 82.7232 64.255 82.4134C64.6081 82.1037 65.0188 81.8664 65.4638 81.7151C65.9087 81.5638 66.3792 81.5015 66.8482 81.5317L115.3 84.6468C116.247 84.7087 117.13 85.1431 117.757 85.8545C118.383 86.566 118.702 87.4964 118.642 88.4417L117.813 101.283C117.768 101.971 117.524 102.631 117.112 103.185C116.699 103.738 116.136 104.161 115.489 104.402C115.091 104.551 114.67 104.627 114.246 104.626V104.626Z" fill="black"/>
<path d="M58.312 23.9591C61.7427 21.0139 66.4537 23.6486 70.388 23.1874C74.152 22.7461 77.1241 19.3758 77.8834 15.7954C78.7692 11.6181 76.5971 7.43313 73.3956 4.8287C69.8892 1.9762 65.2388 1.15732 60.832 1.68505C55.7812 2.2899 51.1621 4.64002 47.0174 7.48262C43.0167 10.1414 39.3376 13.2534 36.0536 16.7564C33.1129 19.9984 30.6213 23.8628 29.8257 28.2253C29.1027 32.19 29.6548 36.5834 32.0027 39.942C33.2477 41.6634 34.9162 43.0355 36.8471 43.9259C38.8605 44.9128 41.0081 45.6183 42.9587 46.7341C45.9079 48.4212 48.7743 51.9193 47.8504 55.5596C47.6524 56.3549 47.2615 57.0893 46.7122 57.6983C46.0523 58.4296 44.8619 57.4632 45.5236 56.73C46.6857 55.4422 46.6399 53.7247 46.0206 52.1872C45.2841 50.4546 43.98 49.0231 42.3219 48.1272C40.2802 46.9619 38.026 46.2427 35.9333 45.1813C33.9303 44.2117 32.1917 42.7734 30.8653 40.9888C28.3607 37.5144 27.6115 32.9927 28.1795 28.8098C28.7942 24.2832 31.1241 20.1699 34.0448 16.7229C37.2234 12.9717 41.1278 9.79634 45.1164 6.94372C49.3963 3.88284 54.1247 1.29507 59.357 0.359118C63.8926 -0.452207 68.8089 0.0472955 72.775 2.51457C76.4772 4.8176 79.3162 8.77928 79.5985 13.2061C79.6999 15.2202 79.2617 17.225 78.3292 19.014C77.3966 20.8031 76.0034 22.3117 74.2928 23.3848C72.5375 24.4333 70.4968 24.9052 68.4585 24.734C66.2794 24.5948 64.0982 23.9287 61.9052 24.1136C60.9129 24.1737 59.9672 24.5551 59.2115 25.2C58.462 25.8435 57.5686 24.5974 58.312 23.9592V23.9591Z" fill="black"/>
</svg>
